<svg width="21" height="22" viewBox="0 0 21 22" fill="none" xmlns="http://www.w3.org/2000/svg">
<g id="Group 632729">
<path id="shape" d="M1 9.16667L10.3333 1L19.6667 9.16667L19.6667 20.8333H13.8333V16.1667C13.8333 15.2384 13.4646 14.3482 12.8082 13.6918C12.1518 13.0354 11.2616 12.6667 10.3333 12.6667C9.40508 12.6667 8.51484 13.0354 7.85847 13.6918C7.20209 14.3482 6.83334 15.2384 6.83334 16.1667V20.8333H1.00001L1 9.16667Z" stroke="#C2C7D3" stroke-width="1.75" stroke-linecap="round" stroke-linejoin="round"/>
<path id="tone" d="M1 9.16667L10.3333 1L19.6667 9.16667L19.6667 20.8333H13.8333V16.1667C13.8333 15.2384 13.4646 14.3482 12.8082 13.6918C12.1518 13.0354 11.2616 12.6667 10.3333 12.6667C9.40508 12.6667 8.51484 13.0354 7.85847 13.6918C7.20209 14.3482 6.83334 15.2384 6.83334 16.1667V20.8333H1.00001L1 9.16667Z" fill="#C2C7D3"/>
</g>
</svg>
