<svg width="22" height="23" viewBox="0 0 22 23" fill="none" xmlns="http://www.w3.org/2000/svg">
<g id="Group 632730">
<path id="shape" d="M20.1667 10.3333H1.5M20.1667 10.3333V19.6667C20.1667 20.9553 19.122 22 17.8333 22H3.83333C2.54467 22 1.5 20.9553 1.5 19.6667V5.66667C1.5 4.378 2.54467 3.33333 3.83333 3.33333H17.8333C19.122 3.33333 20.1667 4.378 20.1667 5.66667V10.3333ZM14.3333 1V5.66667M7.33333 1V5.66667" stroke="#192239" stroke-width="1.75" stroke-linecap="round" stroke-linejoin="round"/>
<path id="tone" d="M19 10H2.66667C2.02233 10 1.5 10.5223 1.5 11.1667V20.5C1.5 21.1443 2.02233 21.6667 2.66666 21.6667H19C19.6443 21.6667 20.1667 21.1443 20.1667 20.5V11.1667C20.1667 10.5223 19.6443 10 19 10Z" fill="#192239"/>
</g>
</svg>
