<svg width="21" height="23" viewBox="0 0 21 23" fill="none" xmlns="http://www.w3.org/2000/svg">
<g id="Group 632730">
<path id="shape" d="M19.6667 10.3333H1M19.6667 10.3333V19.6667C19.6667 20.9553 18.622 22 17.3333 22H3.33333C2.04467 22 1 20.9553 1 19.6667V5.66667C1 4.378 2.04467 3.33333 3.33333 3.33333H17.3333C18.622 3.33333 19.6667 4.378 19.6667 5.66667V10.3333ZM13.8333 1V5.66667M6.83333 1V5.66667" stroke="#C2C7D3" stroke-width="1.75" stroke-linecap="round" stroke-linejoin="round"/>
<path id="tone" d="M18.5 10H2.16667C1.52233 10 1 10.5223 1 11.1667V20.5C1 21.1443 1.52233 21.6667 2.16666 21.6667H18.5C19.1443 21.6667 19.6667 21.1443 19.6667 20.5V11.1667C19.6667 10.5223 19.1443 10 18.5 10Z" fill="#C2C7D3"/>
</g>
</svg>
