<svg width="25" height="23" viewBox="0 0 25 23" fill="none" xmlns="http://www.w3.org/2000/svg">
<g id="Group 632732">
<path id="Tone" fill-rule="evenodd" clip-rule="evenodd" d="M15.1008 5.66667C15.1008 8.244 13.0115 10.3333 10.4342 10.3333C7.85683 10.3333 5.7675 8.244 5.7675 5.66667C5.7675 3.08934 7.85683 1 10.4342 1C13.0115 1 15.1008 3.08934 15.1008 5.66667ZM19.8204 19.2002C20.0042 20.7977 20.1425 22 10.4341 22C0.725816 22 0.864105 20.7977 1.04784 19.2002C1.07387 18.974 1.1008 18.7398 1.1008 18.5C1.1008 16.567 5.27948 15 10.4341 15C15.5888 15 19.7675 16.567 19.7675 18.5C19.7675 18.7398 19.7944 18.974 19.8204 19.2002Z" fill="#C2C7D3"/>
<path id="shape" d="M23.2675 8L19.5342 11.7333L17.4342 9.63329M5.7675 15H15.1008C17.6782 15 19.7675 17.0893 19.7675 19.6667V22H1.10083V19.6667C1.10083 17.0893 3.19017 15 5.7675 15ZM15.1008 5.66667C15.1008 8.244 13.0115 10.3333 10.4342 10.3333C7.85683 10.3333 5.7675 8.244 5.7675 5.66667C5.7675 3.08934 7.85683 1 10.4342 1C13.0115 1 15.1008 3.08934 15.1008 5.66667Z" stroke="#C2C7D3" stroke-width="1.75" stroke-linecap="round" stroke-linejoin="round"/>
</g>
</svg>
