<svg width="29" height="28" viewBox="0 0 29 28" fill="none" xmlns="http://www.w3.org/2000/svg">
<path d="M5.5 12.1667L14.8333 4L24.1667 12.1667L24.1667 23.8333H18.3333V19.1667C18.3333 18.2384 17.9646 17.3482 17.3082 16.6918C16.6518 16.0354 15.7616 15.6667 14.8333 15.6667C13.9051 15.6667 13.0148 16.0354 12.3585 16.6918C11.7021 17.3482 11.3333 18.2384 11.3333 19.1667V23.8333H5.50001L5.5 12.1667Z" stroke="#192239" stroke-width="1.75" stroke-linecap="round" stroke-linejoin="round"/>
<path d="M5.5 12.1667L14.8333 4L24.1667 12.1667L24.1667 23.8333H18.3333V19.1667C18.3333 18.2384 17.9646 17.3482 17.3082 16.6918C16.6518 16.0354 15.7616 15.6667 14.8333 15.6667C13.9051 15.6667 13.0148 16.0354 12.3585 16.6918C11.7021 17.3482 11.3333 18.2384 11.3333 19.1667V23.8333H5.50001L5.5 12.1667Z" fill="#192239"/>
</svg>
