<svg width="28" height="28" viewBox="0 0 28 28" fill="none" xmlns="http://www.w3.org/2000/svg">
<path fill-rule="evenodd" clip-rule="evenodd" d="M16.6008 8.66667C16.6008 11.244 14.5115 13.3333 11.9342 13.3333C9.35683 13.3333 7.2675 11.244 7.2675 8.66667C7.2675 6.08934 9.35683 4 11.9342 4C14.5115 4 16.6008 6.08934 16.6008 8.66667ZM21.3204 22.2002C21.5042 23.7977 21.6425 25 11.9341 25C2.22582 25 2.36411 23.7977 2.54784 22.2002C2.57387 21.974 2.6008 21.7398 2.6008 21.5C2.6008 19.567 6.77948 18 11.9341 18C17.0888 18 21.2675 19.567 21.2675 21.5C21.2675 21.7398 21.2944 21.974 21.3204 22.2002Z" fill="#161E33"/>
<path d="M24.7675 11L21.0342 14.7333L18.9342 12.6333M7.2675 18H16.6008C19.1782 18 21.2675 20.0893 21.2675 22.6667V25H2.60083V22.6667C2.60083 20.0893 4.69017 18 7.2675 18ZM16.6008 8.66667C16.6008 11.244 14.5115 13.3333 11.9342 13.3333C9.35683 13.3333 7.2675 11.244 7.2675 8.66667C7.2675 6.08934 9.35683 4 11.9342 4C14.5115 4 16.6008 6.08934 16.6008 8.66667Z" stroke="#161E33" stroke-width="1.75" stroke-linecap="round" stroke-linejoin="round"/>
</svg>
