<svg width="22" height="22" viewBox="0 0 22 22" fill="none" xmlns="http://www.w3.org/2000/svg">
<g id="icon 112" clip-path="url(#clip0_1757_1243)">
<circle id="Ellipse 277" cx="10.5" cy="11.5" r="7.5" fill="#FEFEFE"/>
<path id="Icon" fill-rule="evenodd" clip-rule="evenodd" d="M11.0003 0.916992C5.43145 0.916992 0.916992 5.43145 0.916992 11.0003C0.916992 16.5692 5.43145 21.0837 11.0003 21.0837C16.5692 21.0837 21.0837 16.5692 21.0837 11.0003C21.0837 5.43145 16.5692 0.916992 11.0003 0.916992ZM16.2377 8.89264C16.5924 8.53145 16.5872 7.95107 16.226 7.59633C15.8648 7.24159 15.2844 7.24682 14.9297 7.60801L9.28158 13.3588L7.07099 11.108C6.71625 10.7468 6.13587 10.7416 5.77468 11.0963C5.41349 11.4511 5.40826 12.0315 5.763 12.3926L7.97359 14.6434C8.69213 15.375 9.87103 15.375 10.5896 14.6434L16.2377 8.89264Z" fill="#287EFF"/>
</g>
<defs>
<clipPath id="clip0_1757_1243">
<rect width="22" height="22" fill="white"/>
</clipPath>
</defs>
</svg>
