<svg width="20" height="20" viewBox="0 0 20 20" fill="none" xmlns="http://www.w3.org/2000/svg">
<g id="icon 79">
<path id="Icon" d="M4.16699 8.33398H15.8337M7.40773 5.83398V3.33398M12.5929 5.83398V3.33398M8.31514 15.834H11.6855C13.1375 15.834 13.8635 15.834 14.4181 15.5615C14.9059 15.3218 15.3025 14.9394 15.5511 14.469C15.8337 13.9342 15.8337 13.2341 15.8337 11.834V8.58398C15.8337 7.18385 15.8337 6.48379 15.5511 5.94901C15.3025 5.4786 14.9059 5.09615 14.4181 4.85647C13.8635 4.58398 13.1375 4.58398 11.6855 4.58398H8.31514C6.86315 4.58398 6.13716 4.58398 5.58257 4.85647C5.09474 5.09615 4.69813 5.4786 4.44957 5.94901C4.16699 6.48379 4.16699 7.18385 4.16699 8.58398V11.834C4.16699 13.2341 4.16699 13.9342 4.44957 14.469C4.69813 14.9394 5.09474 15.3218 5.58257 15.5615C6.13716 15.834 6.86315 15.834 8.31514 15.834Z" stroke="#192239" stroke-width="1.25" stroke-linecap="round"/>
</g>
</svg>
