<svg width="16" height="17" viewBox="0 0 16 17" fill="none" xmlns="http://www.w3.org/2000/svg">
<g id="icon 115">
<path id="Icon" fill-rule="evenodd" clip-rule="evenodd" d="M7.99984 1.16634C12.0499 1.16634 15.3332 4.44959 15.3332 8.49967C15.3332 12.5498 12.0499 15.833 7.99984 15.833C3.94975 15.833 0.666504 12.5498 0.666504 8.49967C0.666504 4.44959 3.94975 1.16634 7.99984 1.16634ZM7.99984 4.49967C8.36803 4.49967 8.6665 4.79815 8.6665 5.16634V9.16634C8.6665 9.53453 8.36803 9.83301 7.99984 9.83301C7.63165 9.83301 7.33317 9.53453 7.33317 9.16634V5.16634C7.33317 4.79815 7.63165 4.49967 7.99984 4.49967ZM8.6665 11.1663C8.6665 10.7982 8.36803 10.4997 7.99984 10.4997C7.63165 10.4997 7.33317 10.7982 7.33317 11.1663C7.33317 11.5345 7.63165 11.8331 7.99984 11.8331C8.36803 11.8331 8.6665 11.5345 8.6665 11.1663Z" fill="#287EFF"/>
</g>
</svg>
