<svg width="32" height="32" viewBox="0 0 32 32" fill="none" xmlns="http://www.w3.org/2000/svg">
<g id="help-question-1--circle-faq-frame-help-info-mark-more-query-question">
<path id="Ellipse 373" d="M16 32C24.8366 32 32 24.8366 32 16C32 7.16344 24.8366 0 16 0C7.16344 0 0 7.16344 0 16C0 24.8366 7.16344 32 16 32Z" fill="#D4D8E2"/>
<g id="Union">
<path id="Vector" d="M13.1424 11.9996C13.1424 10.4216 14.4216 9.14244 15.9996 9.14244C17.5775 9.14244 18.8567 10.4216 18.8567 11.9996C18.8567 13.5775 17.5775 14.8567 15.9996 14.8567C15.0528 14.8567 14.2853 15.6242 14.2853 16.571V18.0487C14.2853 18.9955 15.0528 19.763 15.9996 19.763C16.9463 19.763 17.7139 18.9955 17.7139 18.0487C20.3522 17.3025 22.2853 14.8768 22.2853 11.9996C22.2853 8.52808 19.4711 5.71387 15.9996 5.71387C12.5281 5.71387 9.71387 8.52808 9.71387 11.9996C9.71387 12.9463 10.4814 13.7139 11.4282 13.7139C12.3749 13.7139 13.1424 12.9463 13.1424 11.9996Z" fill="#7B8297"/>
</g>
<g id="Union_2">
<path id="Vector_2" d="M15.9996 26.2853C17.262 26.2853 18.2853 25.262 18.2853 23.9996C18.2853 22.7372 17.262 21.7139 15.9996 21.7139C14.7372 21.7139 13.7139 22.7372 13.7139 23.9996C13.7139 25.262 14.7372 26.2853 15.9996 26.2853Z" fill="#7B8297"/>
</g>
</g>
</svg>
