<svg width="24" height="24" viewBox="0 0 24 24" fill="none" xmlns="http://www.w3.org/2000/svg">
<g id="icon 115">
<g id="Icon">
<path d="M12 1C5.92487 1 1 5.92487 1 12C1 14.9189 2.1369 17.5723 3.99205 19.5414L4.15262 18.7731L4.15831 18.751C4.67032 16.7597 6.31715 15.2181 8.43789 14.4003C7.32593 13.4155 6.62497 11.9771 6.62497 10.375C6.62497 7.40647 9.03144 5 12 5C14.9685 5 17.375 7.40647 17.375 10.375C17.375 11.9771 16.674 13.4155 15.562 14.4003C17.6828 15.2181 19.3296 16.7597 19.8416 18.751L19.8473 18.7731L20.0079 19.5415C21.8631 17.5724 23 14.919 23 12C23 5.92487 18.0751 1 12 1Z" fill="#C2C7D3"/>
<path d="M18.2766 21.0347L17.8993 19.2285C17.4179 17.4104 15.122 15.75 12 15.75C8.87796 15.75 6.58207 17.4105 6.10064 19.2285L5.72321 21.0346C7.50326 22.2736 9.6668 23 12 23C14.3331 23 16.4966 22.2736 18.2766 21.0347Z" fill="#C2C7D3"/>
<path d="M8.62497 10.375C8.62497 8.51104 10.136 7 12 7C13.8639 7 15.375 8.51104 15.375 10.375C15.375 12.239 13.8639 13.75 12 13.75C10.136 13.75 8.62497 12.239 8.62497 10.375Z" fill="#C2C7D3"/>
</g>
</g>
</svg>
