<svg width="24" height="24" viewBox="0 0 24 24" fill="none" xmlns="http://www.w3.org/2000/svg">
<g id="icon 114">
<g id="Icon">
<path fill-rule="evenodd" clip-rule="evenodd" d="M11.5683 2C7.14999 2 3.56826 5.58172 3.56826 10V12.5778C3.56826 13.9598 3.1592 15.3108 2.39262 16.4607L2.25445 16.668C1.58989 17.6648 2.30448 19 3.50252 19H19.634C20.832 19 21.5466 17.6648 20.8821 16.668L20.7439 16.4607C19.9773 15.3108 19.5683 13.9598 19.5683 12.5778V10C19.5683 5.58172 15.9865 2 11.5683 2Z" fill="#C2C7D3"/>
<path d="M15.4408 21.8326C15.7453 21.63 15.9029 21.2893 15.8857 20.9487C15.8689 20.6145 15.5184 20.4461 15.1837 20.4461H7.95264C7.61794 20.4461 7.26741 20.6145 7.25058 20.9487C7.23342 21.2893 7.391 21.63 7.69552 21.8326C10.0352 23.3891 13.1011 23.3891 15.4408 21.8326Z" fill="#C2C7D3"/>
</g>
</g>
</svg>
