<svg width="17" height="16" viewBox="0 0 17 16" fill="none" xmlns="http://www.w3.org/2000/svg">
<g id="icon 115">
<path id="Icon" fill-rule="evenodd" clip-rule="evenodd" d="M8.49935 15.3337C12.5494 15.3337 15.8327 12.0504 15.8327 8.00033C15.8327 3.95024 12.5494 0.666992 8.49935 0.666992C4.44926 0.666992 1.16602 3.95024 1.16602 8.00033C1.16602 12.0504 4.44926 15.3337 8.49935 15.3337ZM8.49935 12.0003C8.86754 12.0003 9.16602 11.7018 9.16602 11.3337V7.33366C9.16602 6.96547 8.86754 6.66699 8.49935 6.66699C8.13116 6.66699 7.83268 6.96547 7.83268 7.33366V11.3337C7.83268 11.7018 8.13116 12.0003 8.49935 12.0003ZM9.16602 5.33366C9.16602 5.70185 8.86754 6.00033 8.49935 6.00033C8.13116 6.00033 7.83268 5.70185 7.83268 5.33366C7.83268 4.96547 8.13116 4.66693 8.49935 4.66693C8.86754 4.66693 9.16602 4.96547 9.16602 5.33366Z" fill="#192239"/>
</g>
</svg>
