<svg width="16" height="17" viewBox="0 0 16 17" fill="none" xmlns="http://www.w3.org/2000/svg">
<g id="icon 115">
<path id="Icon" fill-rule="evenodd" clip-rule="evenodd" d="M8.00008 15.8327C12.0502 15.8327 15.3334 12.5494 15.3334 8.49935C15.3334 4.44926 12.0502 1.16602 8.00008 1.16602C3.94999 1.16602 0.666748 4.44926 0.666748 8.49935C0.666748 12.5494 3.94999 15.8327 8.00008 15.8327ZM8.00008 12.4993C8.36827 12.4993 8.66675 12.2009 8.66675 11.8327V7.83268C8.66675 7.46449 8.36827 7.16602 8.00008 7.16602C7.63189 7.16602 7.33342 7.46449 7.33342 7.83268V11.8327C7.33342 12.2009 7.63189 12.4993 8.00008 12.4993ZM8.66675 5.83268C8.66675 6.20087 8.36827 6.49935 8.00008 6.49935C7.63189 6.49935 7.33342 6.20087 7.33342 5.83268C7.33342 5.46449 7.63189 5.16595 8.00008 5.16595C8.36827 5.16595 8.66675 5.46449 8.66675 5.83268Z" fill="#FEFEFE"/>
</g>
</svg>
