<svg width="14" height="14" viewBox="0 0 14 14" fill="none" xmlns="http://www.w3.org/2000/svg">
<g id="icon 119" clip-path="url(#clip0_969_62665)">
<g id="Icon">
<path d="M6.99967 0.877365V1.75058C6.99967 4.65007 9.35018 7.00058 12.2497 7.00058H13.1229C13.0667 6.86612 12.9994 6.73715 12.923 6.61536C11.5176 4.37595 9.62428 2.48268 7.38487 1.07727C7.26309 1.00084 7.13413 0.933586 6.99967 0.877365Z" fill="#585F73"/>
<path d="M13.301 8.16724C13.2922 8.24887 13.2787 8.33078 13.2603 8.41269C12.6168 11.277 10.0589 13.4172 6.99967 13.4172C3.45585 13.4172 0.583008 10.5444 0.583008 7.00056C0.583008 3.94137 2.72324 1.38345 5.58753 0.739909C5.66945 0.721502 5.75137 0.708036 5.83301 0.699219V1.75058C5.83301 5.2944 8.70585 8.16724 12.2497 8.16724H13.301Z" fill="#585F73"/>
</g>
</g>
<defs>
<clipPath id="clip0_969_62665">
<rect width="14" height="14" fill="white"/>
</clipPath>
</defs>
</svg>
