<svg width="32" height="32" viewBox="0 0 32 32" fill="none" xmlns="http://www.w3.org/2000/svg">
<g id="help-question-1--circle-faq-frame-help-info-mark-more-query-question">
<path id="Ellipse 373" d="M16 32C24.8366 32 32 24.8366 32 16C32 7.16344 24.8366 0 16 0C7.16344 0 0 7.16344 0 16C0 24.8366 7.16344 32 16 32Z" fill="#FFA6A6"/>
<path id="Union" fill-rule="evenodd" clip-rule="evenodd" d="M17.9998 7.65525C17.9998 6.74107 17.1044 6 15.9998 6C14.8953 6 13.9998 6.74107 13.9998 7.65525V17.3448C13.9998 18.2589 14.8953 19 15.9998 19C17.1044 19 17.9998 18.2589 17.9998 17.3448V7.65525ZM18.2848 23.0001C18.2848 24.2621 17.2618 25.2851 15.9998 25.2851C14.7379 25.2851 13.7148 24.2621 13.7148 23.0001C13.7148 21.7381 14.7379 20.7151 15.9998 20.7151C17.2618 20.7151 18.2848 21.7381 18.2848 23.0001Z" fill="#FF2727"/>
</g>
</svg>
