<svg width="24" height="24" viewBox="0 0 24 24" fill="none" xmlns="http://www.w3.org/2000/svg">
<g id="chat-bubble-typing-oval--messages-message-bubble-typing-chat">
<path id="Union" fill-rule="evenodd" clip-rule="evenodd" d="M17.1012 1.18153C15.4851 0.402858 13.7141 -0.0010191 11.9201 1.9311e-06C9.764 0.000718503 7.64816 0.586233 5.79846 1.69418C3.94868 2.8022 2.43407 4.39118 1.41595 6.29192C0.397837 8.19265 -0.085658 10.3339 0.0169641 12.4877C0.112519 14.4932 0.712897 16.4395 1.75921 18.1475L0.0548145 22.6821C-0.0537243 22.9709 0.00129059 23.2956 0.198867 23.5325C0.396442 23.7695 0.706097 23.8821 1.00967 23.8271L6.95135 22.7527C8.49304 23.4609 10.1692 23.8322 11.8679 23.8406C13.6619 23.8495 15.4347 23.4533 17.0543 22.6817C18.6738 21.9101 20.0984 20.7828 21.2216 19.384C22.3448 17.9851 23.1378 16.3508 23.5416 14.6029C23.9453 12.8549 23.9492 11.0383 23.5532 9.28861C23.157 7.53889 22.3712 5.90113 21.254 4.49742C20.137 3.09371 18.7174 1.96024 17.1012 1.18153Z" fill="#A6CAFF"/>
<path id="Union_2" fill-rule="evenodd" clip-rule="evenodd" d="M6.78094 13.6356C7.7277 13.6356 8.49522 12.8681 8.49522 11.9213C8.49522 10.9746 7.7277 10.207 6.78094 10.207C5.83417 10.207 5.06665 10.9746 5.06665 11.9213C5.06665 12.8681 5.83417 13.6356 6.78094 13.6356ZM13.6381 11.9213C13.6381 12.8681 12.8706 13.6356 11.9238 13.6356C10.977 13.6356 10.2095 12.8681 10.2095 11.9213C10.2095 10.9746 10.977 10.207 11.9238 10.207C12.8706 10.207 13.6381 10.9746 13.6381 11.9213ZM18.7809 11.9213C18.7809 12.8681 18.0135 13.6356 17.0667 13.6356C16.1199 13.6356 15.3524 12.8681 15.3524 11.9213C15.3524 10.9746 16.1199 10.207 17.0667 10.207C18.0135 10.207 18.7809 10.9746 18.7809 11.9213Z" fill="#0066FF"/>
</g>
</svg>
