<svg width="24" height="24" viewBox="0 0 24 24" fill="none" xmlns="http://www.w3.org/2000/svg">
<g id="file-delete-alternate--file-common-delete-cross">
<path id="Subtract" fill-rule="evenodd" clip-rule="evenodd" d="M4.18174 0.753154C4.66397 0.270917 5.31804 0 6.00002 0H16.2857C16.5131 0 16.7311 0.0903058 16.8918 0.251052L23.749 7.1082C23.9097 7.26893 24 7.48695 24 7.71429V21.4286C24 22.1105 23.7292 22.7647 23.2469 23.2469C22.7647 23.7291 22.1105 24 21.4286 24H11.7336C12.2333 22.7628 11.9817 21.293 10.9787 20.2899L9.76875 19.08L10.9787 17.8701C12.3176 16.5312 12.3176 14.3603 10.9787 13.0214C9.63972 11.6824 7.46887 11.6824 6.12994 13.0214L4.92002 14.2313L3.71009 13.0214C3.61987 12.9311 3.52586 12.847 3.42859 12.7689V2.57143C3.42859 1.88945 3.69951 1.23539 4.18174 0.753154Z" fill="#A6CAFF"/>
<path id="Union" fill-rule="evenodd" clip-rule="evenodd" d="M9.46342 16.3544C9.96552 15.8523 9.96552 15.0382 9.46342 14.5361C8.96133 14.034 8.14725 14.034 7.64515 14.5361L4.92 17.2612L2.19485 14.5361C1.69275 14.034 0.878679 14.034 0.376577 14.5361C-0.125526 15.0382 -0.125526 15.8523 0.376577 16.3544L3.10173 19.0795L0.376577 21.8047C-0.125526 22.3068 -0.125526 23.1208 0.376577 23.6229C0.878679 24.125 1.69275 24.125 2.19485 23.6229L4.92 20.8979L7.64515 23.6229C8.14725 24.125 8.96133 24.125 9.46342 23.6229C9.96552 23.1208 9.96552 22.3068 9.46342 21.8047L6.73827 19.0795L9.46342 16.3544Z" fill="#0066FF"/>
</g>
</svg>
