<svg width="24" height="24" viewBox="0 0 24 24" fill="none" xmlns="http://www.w3.org/2000/svg">
<g id="calendar-star--calendar-date-day-favorite-like-month-star">
<path id="Subtract" fill-rule="evenodd" clip-rule="evenodd" d="M6 0C6.94677 0 7.71429 0.767511 7.71429 1.71429V3.42857H16.2859V1.71429C16.2859 0.767511 17.0534 0 18.0002 0C18.947 0 19.7145 0.767511 19.7145 1.71429V3.42857H21.4286C22.8487 3.42857 24 4.57983 24 6V7.71429H0V6C0 4.57983 1.15127 3.42857 2.57143 3.42857H4.28571V1.71429C4.28571 0.767511 5.05323 0 6 0Z" fill="#0066FF"/>
<path id="Rectangle 481" d="M0 7.71423H24V21.4285C24 22.8486 22.8487 23.9999 21.4286 23.9999H2.57143C1.15127 23.9999 0 22.8486 0 21.4285V7.71423Z" fill="#A6CAFF"/>
<path id="Union" d="M12.4362 10.4065C12.2986 10.3246 12.1408 10.2829 11.9807 10.2859C11.8206 10.289 11.6645 10.3368 11.5301 10.424C11.3973 10.5101 11.2909 10.6313 11.2227 10.7741L9.94998 13.3344L9.94793 13.3379L7.11502 13.7532L7.10862 13.7541C6.95309 13.7793 6.80749 13.8469 6.68778 13.9493C6.56808 14.0518 6.47888 14.1852 6.42997 14.335C6.38106 14.4848 6.37433 14.6451 6.4105 14.7985C6.44667 14.9519 6.52436 15.0923 6.63507 15.2044L6.64367 15.2129L8.69117 17.1733C8.68702 17.188 8.68366 17.2031 8.6811 17.2182L8.20805 20.0269C8.17654 20.1865 8.19095 20.3517 8.24977 20.5034C8.30977 20.6582 8.41344 20.7925 8.54816 20.8895C8.68289 20.9867 8.84288 21.0426 9.00879 21.0506C9.1712 21.0585 9.33245 21.0199 9.47375 20.9397L11.9695 19.6185C11.9772 19.6159 11.9854 19.6146 11.9935 19.6146C12.0017 19.6146 12.0099 19.6159 12.0176 19.6185L14.5133 20.9397C14.6547 21.0199 14.8159 21.0585 14.9783 21.0506C15.1442 21.0426 15.3042 20.9867 15.439 20.8895C15.5737 20.7925 15.6773 20.6582 15.7373 20.5034C15.7954 20.3536 15.8102 20.1907 15.7803 20.0332L15.3818 17.229C15.3765 17.1918 15.3663 17.1553 15.3515 17.1208L17.3409 15.2302C17.4592 15.1195 17.5437 14.9776 17.5848 14.8208C17.6261 14.6632 17.6217 14.497 17.572 14.3418C17.5222 14.1865 17.4295 14.0487 17.3044 13.9443C17.1806 13.841 17.0302 13.7747 16.8705 13.7529L14.0437 13.3237L14.0387 13.3227L12.7626 10.7557L12.7595 10.7495C12.6858 10.6073 12.5739 10.4885 12.4362 10.4065Z" fill="#0066FF"/>
</g>
</svg>
