<svg width="24" height="24" viewBox="0 0 24 24" fill="none" xmlns="http://www.w3.org/2000/svg">
<g id="file-add-alternate--file-common-add">
<path id="Subtract" fill-rule="evenodd" clip-rule="evenodd" d="M4.18174 0.753154C4.66397 0.270917 5.31804 0 6.00002 0H16.2857C16.5131 0 16.7311 0.0903058 16.8918 0.251052L23.749 7.1082C23.9097 7.26893 24 7.48695 24 7.71429V21.4286C24 22.1105 23.7292 22.7647 23.2469 23.2469C22.7647 23.7291 22.1105 24 21.4286 24H8.75079C8.91151 23.603 9.00002 23.1689 9.00002 22.7143V21.8571H9.85716C11.7507 21.8571 13.2857 20.3222 13.2857 18.4286C13.2857 16.535 11.7507 15 9.85716 15H9.00002V14.1429C9.00002 12.2493 7.46499 10.7143 5.57145 10.7143C4.76064 10.7143 4.01556 10.9957 3.42859 11.4663V2.57143C3.42859 1.88945 3.69951 1.23539 4.18174 0.753154Z" fill="#A6CAFF"/>
<path id="Vector (Stroke)" fill-rule="evenodd" clip-rule="evenodd" d="M5.57143 12.8572C6.2815 12.8572 6.85714 13.4328 6.85714 14.1429V17.1429H9.85714C10.5672 17.1429 11.1429 17.7185 11.1429 18.4286C11.1429 19.1387 10.5672 19.7143 9.85714 19.7143H6.85714V22.7143C6.85714 23.4244 6.2815 24 5.57143 24C4.86135 24 4.28571 23.4244 4.28571 22.7143V19.7143H1.28571C0.575633 19.7143 0 19.1387 0 18.4286C0 17.7185 0.575633 17.1429 1.28571 17.1429H4.28571V14.1429C4.28571 13.4328 4.86135 12.8572 5.57143 12.8572Z" fill="#0066FF"/>
</g>
</svg>
