<svg width="24" height="24" viewBox="0 0 24 24" fill="none" xmlns="http://www.w3.org/2000/svg">
<g id="help-chat-2--bubble-help-mark-message-query-question-speech-circle">
<path id="Union" fill-rule="evenodd" clip-rule="evenodd" d="M17.1012 1.18153C15.4851 0.402858 13.7141 -0.0010191 11.9201 1.9311e-06C9.764 0.000718331 7.64816 0.586233 5.79846 1.6942C3.94868 2.80219 2.43407 4.39118 1.41595 6.29191C0.397837 8.19265 -0.085658 10.3339 0.0169641 12.4877C0.112519 14.4932 0.712897 16.4395 1.75921 18.1475L0.0548145 22.6821C-0.0537243 22.9708 0.00129059 23.2957 0.198867 23.5326C0.396442 23.7695 0.706097 23.882 1.00967 23.8271L6.95135 22.7528C8.49304 23.4609 10.1692 23.8323 11.8679 23.8407C13.6619 23.8496 15.4347 23.4534 17.0543 22.6818C18.6738 21.91 20.0984 20.7829 21.2216 19.384C22.3448 17.9852 23.1378 16.3509 23.5416 14.6029C23.9453 12.8549 23.9492 11.0383 23.5532 9.28861C23.157 7.53889 22.3712 5.90113 21.254 4.49742C20.137 3.09371 18.7174 1.96024 17.1012 1.18153Z" fill="#A6CAFF"/>
<path id="Union_2" fill-rule="evenodd" clip-rule="evenodd" d="M12.2568 7.44236C11.9258 7.37655 11.5828 7.41032 11.2711 7.53946C10.9593 7.66858 10.6929 7.88723 10.5055 8.16779C10.318 8.44834 10.2179 8.77818 10.2179 9.11559C10.2179 9.70733 9.73824 10.187 9.1465 10.187C8.55476 10.187 8.07507 9.70733 8.07507 9.11559C8.07507 8.35436 8.30081 7.61022 8.72373 6.97727C9.14664 6.34434 9.74775 5.85102 10.451 5.55971C11.1543 5.26839 11.9282 5.19217 12.6748 5.34068C13.4214 5.48919 14.1072 5.85577 14.6455 6.39404C15.1838 6.93231 15.5503 7.61811 15.6988 8.36471C15.8474 9.11132 15.7711 9.8852 15.4798 10.5885C15.1885 11.2918 14.6952 11.8929 14.0623 12.3158C13.7324 12.5362 13.3723 12.7031 12.9954 12.8123V13.7447C12.9954 14.3364 12.5157 14.8161 11.9239 14.8161C11.3322 14.8161 10.8525 14.3364 10.8525 13.7447V11.893C10.8525 11.3013 11.3322 10.8216 11.9239 10.8216C12.2614 10.8216 12.5912 10.7215 12.8717 10.5341C13.1523 10.3466 13.371 10.0802 13.5001 9.76846C13.6292 9.45673 13.663 9.1137 13.5972 8.78278C13.5313 8.45183 13.3689 8.14786 13.1303 7.90926C12.8917 7.67067 12.5877 7.50819 12.2568 7.44236ZM11.924 19.4451C11.0782 19.4432 10.3932 18.757 10.3932 17.9108C10.3932 17.0634 11.0801 16.3765 11.9275 16.3765L11.931 16.3765C12.7768 16.3784 13.4618 17.0646 13.4618 17.9108C13.4618 18.7582 12.7749 19.4451 11.9275 19.4451H11.924Z" fill="#0066FF"/>
</g>
</svg>
