<svg width="24" height="24" viewBox="0 0 24 24" fill="none" xmlns="http://www.w3.org/2000/svg">
<g id="chat-bubble-square-write--messages-message-bubble-chat-square-write-review-pen-pencil-compose">
<path id="Vector" d="M15.4185 12.8671L10.2756 13.7928L11.1328 8.58137L19.2413 0.507082C19.4007 0.346406 19.5903 0.218873 19.7993 0.13184C20.0081 0.0448083 20.2321 0 20.4584 0C20.6849 0 20.9089 0.0448083 21.1177 0.13184C21.3267 0.218873 21.5163 0.346406 21.6756 0.507082L23.4927 2.32423C23.6535 2.48359 23.7811 2.67319 23.868 2.88209C23.9551 3.09099 23.9998 3.31507 23.9998 3.54137C23.9998 3.76767 23.9551 3.99175 23.868 4.20063C23.7811 4.40954 23.6535 4.59915 23.4927 4.75851L15.4185 12.8671Z" fill="#0066FF"/>
<path id="Subtract" fill-rule="evenodd" clip-rule="evenodd" d="M15.7982 14.976C16.2299 14.8983 16.6274 14.69 16.937 14.3791L24 7.28607V19.7143C24 20.3962 23.7291 21.0504 23.2469 21.5326C22.7647 22.0149 22.1105 22.2857 21.4286 22.2857H7.81982L1.06505 23.9745C0.761547 24.0502 0.440815 23.9547 0.228255 23.7252C0.015696 23.4957 -0.0549256 23.1686 0.0440035 22.8718L1.7143 17.861V2.57143C1.7143 1.88945 1.98523 1.23539 2.46746 0.753154C2.94969 0.270917 3.60375 0 4.28573 0H16.7138L9.62083 7.06293C9.30214 7.38027 9.09139 7.78983 9.01839 8.23359L8.16125 13.445C8.04828 14.1319 8.27601 14.8309 8.77193 15.3194C9.26787 15.8079 9.9702 16.0251 10.6553 15.9018L15.7982 14.976Z" fill="#A6CAFF"/>
</g>
</svg>
