<svg width="24" height="24" viewBox="0 0 24 24" fill="none" xmlns="http://www.w3.org/2000/svg">
<g id="calendar-jump-to-date">
<path id="Subtract" fill-rule="evenodd" clip-rule="evenodd" d="M6 0C6.94677 0 7.71429 0.767511 7.71429 1.71429V3.42857H16.2859V1.71429C16.2859 0.767511 17.0534 0 18.0002 0C18.947 0 19.7145 0.767511 19.7145 1.71429V3.42857H21.4286C22.8487 3.42857 24 4.57983 24 6V7.71429H0V6C0 4.57983 1.15127 3.42857 2.57143 3.42857H4.28571V1.71429C4.28571 0.767511 5.05323 0 6 0Z" fill="#0066FF"/>
<path id="Rectangle 481" d="M0 7.71423H24V21.4285C24 22.8486 22.8487 23.9999 21.4286 23.9999H2.57143C1.15127 23.9999 0 22.8486 0 21.4285V7.71423Z" fill="#A6CAFF"/>
<path id="Union" fill-rule="evenodd" clip-rule="evenodd" d="M12.7366 18.7599C12.7366 19.1933 12.9976 19.584 13.398 19.7497C13.7984 19.9157 14.2592 19.824 14.5656 19.5176L17.8385 16.2447C18.257 15.8263 18.257 15.1479 17.8385 14.7295L14.5656 11.4567C14.2592 11.1502 13.7984 11.0586 13.398 11.2244C12.9976 11.3902 12.7366 11.7809 12.7366 12.2143V14.2013H6.91908C6.209 14.2013 5.63336 14.777 5.63336 15.487C5.63336 16.1971 6.209 16.7728 6.91908 16.7728H12.7366V18.7599Z" fill="#0066FF"/>
</g>
</svg>
