<svg width="24" height="24" viewBox="0 0 24 24" fill="none" xmlns="http://www.w3.org/2000/svg">
<g id="calendar-add--add-calendar-date-day-month" clip-path="url(#clip0_892_12643)">
<g id="calendar-add--add-calendar-date-day-month_2">
<path id="Subtract" fill-rule="evenodd" clip-rule="evenodd" d="M6 0C6.94677 0 7.71429 0.767511 7.71429 1.71429V3.42857H16.2859V1.71429C16.2859 0.767511 17.0534 0 18.0002 0C18.947 0 19.7145 0.767511 19.7145 1.71429V3.42857H21.4286C22.8487 3.42857 24 4.57983 24 6V7.71429H0V6C0 4.57983 1.15127 3.42857 2.57143 3.42857H4.28571V1.71429C4.28571 0.767511 5.05323 0 6 0Z" fill="#0066FF"/>
<path id="Rectangle 481" d="M0 7.71387H24V21.4282C24 22.8483 22.8487 23.9996 21.4286 23.9996H2.57143C1.15127 23.9996 0 22.8483 0 21.4282V7.71387Z" fill="#A6CAFF"/>
<path id="Union" fill-rule="evenodd" clip-rule="evenodd" d="M13.2859 11.5718C13.2859 10.8618 12.7102 10.2861 12.0001 10.2861C11.2901 10.2861 10.7144 10.8618 10.7144 11.5718V14.5718H7.71443C7.00435 14.5718 6.42871 15.1475 6.42871 15.8576C6.42871 16.5676 7.00435 17.1433 7.71443 17.1433H10.7144V20.1433C10.7144 20.8533 11.2901 21.429 12.0001 21.429C12.7102 21.429 13.2859 20.8533 13.2859 20.1433V17.1433H16.2859C16.9959 17.1433 17.5716 16.5676 17.5716 15.8576C17.5716 15.1475 16.9959 14.5718 16.2859 14.5718H13.2859V11.5718Z" fill="#0066FF"/>
</g>
</g>
<defs>
<clipPath id="clip0_892_12643">
<rect width="24" height="24" fill="white"/>
</clipPath>
</defs>
</svg>
