<svg width="20" height="21" viewBox="0 0 20 21" fill="none" xmlns="http://www.w3.org/2000/svg">
<g id="icon 79">
<path id="Icon" d="M4.1665 8.83301H15.8332M7.40724 6.33301V3.83301M12.5924 6.33301V3.83301M8.31465 16.333H11.685C13.137 16.333 13.863 16.333 14.4176 16.0605C14.9054 15.8208 15.302 15.4384 15.5506 14.968C15.8332 14.4332 15.8332 13.7331 15.8332 12.333V9.08301C15.8332 7.68288 15.8332 6.98281 15.5506 6.44803C15.302 5.97763 14.9054 5.59517 14.4176 5.35549C13.863 5.08301 13.137 5.08301 11.685 5.08301H8.31465C6.86266 5.08301 6.13667 5.08301 5.58208 5.35549C5.09426 5.59517 4.69764 5.97763 4.44908 6.44803C4.1665 6.98281 4.1665 7.68288 4.1665 9.08301V12.333C4.1665 13.7331 4.1665 14.4332 4.44908 14.968C4.69764 15.4384 5.09426 15.8208 5.58208 16.0605C6.13667 16.333 6.86266 16.333 8.31465 16.333Z" stroke="#192239" stroke-width="1.25" stroke-linecap="round"/>
</g>
</svg>
