<svg width="16" height="16" viewBox="0 0 16 16" fill="none" xmlns="http://www.w3.org/2000/svg">
<g id="icon 103">
<path id="Icon" d="M7.67356 2.26365C7.74621 1.90821 8.25408 1.90821 8.32673 2.26365L8.89189 5.02877C9.10583 6.07548 9.92383 6.89348 10.9705 7.10742L13.7357 7.67259C14.0911 7.74524 14.0911 8.2531 13.7357 8.32575L10.9705 8.89092C9.92383 9.10486 9.10583 9.92285 8.89189 10.9696L8.32673 13.7347C8.25408 14.0901 7.74621 14.0901 7.67356 13.7347L7.10839 10.9696C6.89446 9.92285 6.07646 9.10486 5.02975 8.89092L2.26463 8.32575C1.90919 8.2531 1.90919 7.74524 2.26463 7.67259L5.02975 7.10742C6.07646 6.89348 6.89446 6.07548 7.10839 5.02877L7.67356 2.26365Z" stroke="#7B8297"/>
</g>
</svg>
