<svg width="22" height="22" viewBox="0 0 22 22" fill="none" xmlns="http://www.w3.org/2000/svg">
<g id="icon 121" clip-path="url(#clip0_1757_1472)">
<path id="Icon" fill-rule="evenodd" clip-rule="evenodd" d="M11.0001 0.916992C5.43121 0.916992 0.916748 5.43145 0.916748 11.0003C0.916748 16.5692 5.43121 21.0837 11.0001 21.0837C16.569 21.0837 21.0834 16.5692 21.0834 11.0003C21.0834 5.43145 16.569 0.916992 11.0001 0.916992ZM11.9167 6.41699C11.9167 5.91073 11.5063 5.50033 11.0001 5.50033C10.4938 5.50033 10.0834 5.91073 10.0834 6.41699V10.0837H6.41675C5.91049 10.0837 5.50008 10.4941 5.50008 11.0003C5.50008 11.5066 5.91049 11.917 6.41675 11.917H10.0834V15.5837C10.0834 16.0899 10.4938 16.5003 11.0001 16.5003C11.5063 16.5003 11.9167 16.0899 11.9167 15.5837V11.917H15.5834C16.0897 11.917 16.5001 11.5066 16.5001 11.0003C16.5001 10.4941 16.0897 10.0837 15.5834 10.0837H11.9167V6.41699Z" fill="#FEFEFE"/>
</g>
<defs>
<clipPath id="clip0_1757_1472">
<rect width="22" height="22" fill="white"/>
</clipPath>
</defs>
</svg>
