<svg width="22" height="22" viewBox="0 0 22 22" fill="none" xmlns="http://www.w3.org/2000/svg">
<g id="icon 113" clip-path="url(#clip0_964_54372)">
<path id="Icon" fill-rule="evenodd" clip-rule="evenodd" d="M10.9998 0.916016C5.43097 0.916016 0.916504 5.43048 0.916504 10.9993C0.916504 16.5682 5.43097 21.0827 10.9998 21.0827C16.5687 21.0827 21.0832 16.5682 21.0832 10.9993C21.0832 5.43048 16.5687 0.916016 10.9998 0.916016ZM16.2372 8.89167C16.5919 8.53047 16.5867 7.9501 16.2255 7.59536C15.8643 7.24061 15.2839 7.24584 14.9292 7.60703L9.28109 13.3578L7.0705 11.107C6.71576 10.7458 6.13538 10.7406 5.77419 11.0954C5.413 11.4501 5.40777 12.0305 5.76251 12.3917L7.9731 14.6424C8.69164 15.3741 9.87054 15.3741 10.5891 14.6424L16.2372 8.89167Z" fill="#C2C7D3"/>
</g>
<defs>
<clipPath id="clip0_964_54372">
<rect width="22" height="22" fill="white"/>
</clipPath>
</defs>
</svg>
