<svg width="18" height="18" viewBox="0 0 18 18" fill="none" xmlns="http://www.w3.org/2000/svg">
<path id="Icon" d="M3.32003 16.1367L3.66052 15.4684L3.32003 16.1367ZM1.86331 14.68L2.53157 14.3395L1.86331 14.68ZM16.1367 14.68L15.4684 14.3395L16.1367 14.68ZM14.68 16.1367L14.3395 15.4684L14.68 16.1367ZM14.68 1.86331L14.3395 2.53157L14.68 1.86331ZM16.1367 3.32003L15.4684 3.66052L16.1367 3.32003ZM3.32003 1.86331L3.66052 2.53157L3.32003 1.86331ZM1.86331 3.32003L2.53157 3.66052L1.86331 3.32003ZM6.83333 2.25H11.1667V0.75H6.83333V2.25ZM15.75 6.83333V11.1667H17.25V6.83333H15.75ZM11.1667 15.75H6.83333V17.25H11.1667V15.75ZM2.25 11.1667V6.83333H0.75V11.1667H2.25ZM6.83333 15.75C5.88754 15.75 5.2233 15.7494 4.70508 15.7071C4.19562 15.6655 3.89369 15.5872 3.66052 15.4684L2.97954 16.8049C3.45941 17.0494 3.98071 17.1529 4.58293 17.2021C5.1764 17.2506 5.91229 17.25 6.83333 17.25V15.75ZM0.75 11.1667C0.75 12.0877 0.749417 12.8236 0.797905 13.4171C0.847108 14.0193 0.950551 14.5406 1.19506 15.0205L2.53157 14.3395C2.41276 14.1063 2.33455 13.8044 2.29292 13.2949C2.25058 12.7767 2.25 12.1125 2.25 11.1667H0.75ZM3.66052 15.4684C3.17444 15.2208 2.77924 14.8256 2.53157 14.3395L1.19506 15.0205C1.58654 15.7888 2.21121 16.4135 2.97954 16.8049L3.66052 15.4684ZM15.75 11.1667C15.75 12.1125 15.7494 12.7767 15.7071 13.2949C15.6655 13.8044 15.5872 14.1063 15.4684 14.3395L16.8049 15.0205C17.0494 14.5406 17.1529 14.0193 17.2021 13.4171C17.2506 12.8236 17.25 12.0877 17.25 11.1667H15.75ZM11.1667 17.25C12.0877 17.25 12.8236 17.2506 13.4171 17.2021C14.0193 17.1529 14.5406 17.0494 15.0205 16.8049L14.3395 15.4684C14.1063 15.5872 13.8044 15.6655 13.2949 15.7071C12.7767 15.7494 12.1125 15.75 11.1667 15.75V17.25ZM15.4684 14.3395C15.2208 14.8256 14.8256 15.2208 14.3395 15.4684L15.0205 16.8049C15.7888 16.4135 16.4135 15.7888 16.8049 15.0205L15.4684 14.3395ZM11.1667 2.25C12.1125 2.25 12.7767 2.25058 13.2949 2.29292C13.8044 2.33455 14.1063 2.41276 14.3395 2.53157L15.0205 1.19506C14.5406 0.950551 14.0193 0.847108 13.4171 0.797905C12.8236 0.749417 12.0877 0.75 11.1667 0.75V2.25ZM17.25 6.83333C17.25 5.91229 17.2506 5.1764 17.2021 4.58293C17.1529 3.98071 17.0494 3.45941 16.8049 2.97954L15.4684 3.66052C15.5872 3.89369 15.6655 4.19562 15.7071 4.70508C15.7494 5.2233 15.75 5.88754 15.75 6.83333H17.25ZM14.3395 2.53157C14.8256 2.77924 15.2208 3.17444 15.4684 3.66052L16.8049 2.97954C16.4135 2.21121 15.7888 1.58654 15.0205 1.19506L14.3395 2.53157ZM6.83333 0.75C5.91229 0.75 5.1764 0.749417 4.58293 0.797905C3.98071 0.847108 3.45941 0.950551 2.97954 1.19506L3.66052 2.53157C3.89369 2.41276 4.19562 2.33455 4.70508 2.29292C5.2233 2.25058 5.88754 2.25 6.83333 2.25V0.75ZM2.25 6.83333C2.25 5.88754 2.25058 5.2233 2.29292 4.70508C2.33455 4.19562 2.41276 3.89369 2.53157 3.66052L1.19506 2.97954C0.950551 3.45941 0.847108 3.98071 0.797905 4.58293C0.749417 5.1764 0.75 5.91229 0.75 6.83333H2.25ZM2.97954 1.19506C2.21121 1.58654 1.58654 2.21121 1.19506 2.97954L2.53157 3.66052C2.77924 3.17444 3.17444 2.77924 3.66052 2.53157L2.97954 1.19506Z" fill="#192239"/>
</svg>
