<svg width="18" height="18" viewBox="0 0 18 18" fill="none" xmlns="http://www.w3.org/2000/svg">
<path id="Icon" fill-rule="evenodd" clip-rule="evenodd" d="M11.2027 0.666016H6.79799C5.89483 0.666008 5.16637 0.666001 4.57647 0.714198C3.9691 0.763822 3.43561 0.868666 2.94203 1.12016C2.15802 1.51963 1.5206 2.15705 1.12113 2.94106C0.869643 3.43463 0.764799 3.96812 0.715174 4.5755C0.666978 5.16539 0.666984 5.89385 0.666992 6.797V11.2017C0.666984 12.1048 0.666978 12.8333 0.715174 13.4232C0.764799 14.0306 0.869643 14.5641 1.12113 15.0576C1.5206 15.8416 2.15802 16.4791 2.94203 16.8785C3.43561 17.13 3.9691 17.2349 4.57647 17.2845C5.16635 17.3327 5.89477 17.3327 6.79788 17.3327H11.2027C12.1058 17.3327 12.8343 17.3327 13.4242 17.2845C14.0316 17.2349 14.565 17.13 15.0586 16.8785C15.8426 16.4791 16.48 15.8416 16.8795 15.0576C17.131 14.5641 17.2359 14.0306 17.2855 13.4232C17.3337 12.8333 17.3337 12.1049 17.3337 11.2018V6.79699C17.3337 5.89388 17.3337 5.16537 17.2855 4.5755C17.2359 3.96812 17.131 3.43463 16.8795 2.94106C16.48 2.15705 15.8426 1.51963 15.0586 1.12016C14.565 0.868666 14.0316 0.763822 13.4242 0.714198C12.8343 0.666001 12.1058 0.666008 11.2027 0.666016ZM12.8942 7.9493C13.2348 7.63971 13.2599 7.11267 12.9503 6.77212C12.6407 6.43157 12.1136 6.40648 11.7731 6.71606L7.75032 10.3731L6.22755 8.98879C5.887 8.6792 5.35996 8.7043 5.05038 9.04485C4.74079 9.3854 4.76588 9.91244 5.10643 10.222L6.90948 11.8612C7.38626 12.2946 8.11439 12.2946 8.59117 11.8612L12.8942 7.9493Z" fill="#7B8297"/>
</svg>
