<svg width="18" height="19" viewBox="0 0 18 19" fill="none" xmlns="http://www.w3.org/2000/svg">
<g id="icon 99">
<path id="Icon" fill-rule="evenodd" clip-rule="evenodd" d="M10.9821 2H7.0179C6.20506 1.99999 5.54944 1.99999 5.01853 2.04336C4.4719 2.08803 3.99175 2.18239 3.54754 2.40873C2.84193 2.76825 2.26825 3.34193 1.90873 4.04754C1.68239 4.49175 1.58803 4.9719 1.54336 5.51853C1.49999 6.04944 1.49999 6.70505 1.5 7.51789V11.4821C1.49999 12.2949 1.49999 12.9506 1.54336 13.4815C1.58803 14.0281 1.68239 14.5082 1.90873 14.9525C2.26825 15.6581 2.84193 16.2317 3.54754 16.5913C3.99175 16.8176 4.4719 16.912 5.01853 16.9566C5.54942 17 6.205 17 7.0178 17H10.9821C11.7949 17 12.4506 17 12.9815 16.9566C13.5281 16.912 14.0082 16.8176 14.4525 16.5913C15.1581 16.2317 15.7317 15.6581 16.0913 14.9525C16.3176 14.5082 16.412 14.0281 16.4566 13.4815C16.5 12.9506 16.5 12.295 16.5 11.4822V7.51788C16.5 6.70508 16.5 6.04942 16.4566 5.51853C16.412 4.9719 16.3176 4.49175 16.0913 4.04754C15.7317 3.34193 15.1581 2.76825 14.4525 2.40873C14.0082 2.18239 13.5281 2.08803 12.9815 2.04336C12.4506 1.99999 11.7949 1.99999 10.9821 2ZM12.5045 8.55495C12.811 8.27632 12.8336 7.80199 12.555 7.4955C12.2763 7.189 11.802 7.16641 11.4955 7.44504L7.875 10.7364L6.5045 9.4905C6.19801 9.21187 5.72368 9.23446 5.44504 9.54095C5.16641 9.84744 5.189 10.3218 5.4955 10.6004L7.11824 12.0756C7.54734 12.4657 8.20266 12.4657 8.63176 12.0756L12.5045 8.55495Z" fill="#C2C7D3"/>
</g>
</svg>
