<svg width="16" height="16" viewBox="0 0 16 16" fill="none" xmlns="http://www.w3.org/2000/svg">
<g id="icon 118" clip-path="url(#clip0_964_54214)">
<g id="Icon">
<path d="M7.99935 1.00242V2.00038C7.99935 5.31409 10.6856 8.00038 13.9993 8.00038H14.9973C14.933 7.84671 14.8562 7.69932 14.7688 7.56014C13.1626 5.0008 10.9989 2.83707 8.43957 1.23089C8.3004 1.14354 8.15301 1.06668 7.99935 1.00242Z" fill="#192239"/>
<path d="M15.2009 9.33371C15.1908 9.427 15.1754 9.52061 15.1544 9.61423C14.4189 12.8877 11.4956 15.3337 7.99935 15.3337C3.94926 15.3337 0.666016 12.0504 0.666016 8.00035C0.666016 4.50414 3.112 1.5808 6.38547 0.845331C6.4791 0.824295 6.57271 0.808905 6.66602 0.798828V2.00038C6.66602 6.05047 9.94926 9.33371 13.9993 9.33371H15.2009Z" fill="#192239"/>
</g>
</g>
<defs>
<clipPath id="clip0_964_54214">
<rect width="16" height="16" fill="white"/>
</clipPath>
</defs>
</svg>
