<svg width="15" height="16" viewBox="0 0 15 16" fill="none" xmlns="http://www.w3.org/2000/svg">
<path id="Icon" fill-rule="evenodd" clip-rule="evenodd" d="M6.39722 1.39776C6.64241 0.198143 8.35645 0.19814 8.60164 1.39776L9.23746 4.50852C9.41797 5.39168 10.1082 6.08187 10.9913 6.26238L14.1021 6.89819C15.3017 7.14339 15.3017 8.85742 14.1021 9.10262L10.9913 9.73843C10.1082 9.91895 9.41797 10.6091 9.23746 11.4923L8.60164 14.6031C8.35645 15.8027 6.64241 15.8027 6.39722 14.6031L5.7614 11.4923C5.58089 10.6091 4.89071 9.91895 4.00755 9.73843L0.896787 9.10262C-0.302834 8.85743 -0.302837 7.14339 0.896787 6.89819L4.00755 6.26238C4.89071 6.08187 5.58089 5.39168 5.7614 4.50852L6.39722 1.39776Z" fill="#FEFEFE"/>
</svg>
