<svg width="13" height="13" viewBox="0 0 13 13" fill="none" xmlns="http://www.w3.org/2000/svg">
<path id="Icon" d="M6.39628 4.20228V6.40353L7.34938 6.95385M1.03582 7.65425C0.942435 7.25245 0.893066 6.83376 0.893066 6.40353C0.893066 5.97331 0.942435 5.55462 1.03582 5.15282M5.39564 0.991131C5.7201 0.931532 6.05452 0.900391 6.39621 0.900391C9.43551 0.900391 11.8994 3.36423 11.8994 6.40353C11.8994 9.44284 9.43551 11.9067 6.39621 11.9067C6.05452 11.9067 5.7201 11.8755 5.39564 11.8159M3.64464 1.63661C2.89402 2.07082 2.25548 2.67723 1.78304 3.40182M1.78304 9.40525C2.25548 10.1298 2.89402 10.7362 3.64464 11.1705" stroke="#FEFEFE" stroke-width="1.4" stroke-linecap="round"/>
</svg>
