<svg width="24" height="24" viewBox="0 0 24 24" fill="none" xmlns="http://www.w3.org/2000/svg">
<g id="wrench--crescent-tool-construction-tools-wrench-setting-edit-adjust">
<path id="Union" fill-rule="evenodd" clip-rule="evenodd" d="M17.9798 0.142406C16.6219 -0.12766 15.2152 -0.0120571 13.92 0.476054C12.6247 0.964166 11.4929 1.80517 10.6534 2.90334C9.81392 4.00148 9.30045 5.31266 9.17144 6.68758C9.06957 7.77353 9.21077 8.86477 9.58043 9.88372L0.755498 18.6852C-0.266387 19.7042 -0.249442 21.3618 0.79307 22.36L1.7574 23.2832C2.76633 24.2492 4.36337 24.2374 5.35772 23.2564L14.3043 14.4303C15.2918 14.7493 16.3392 14.8591 17.3784 14.7479C18.7416 14.6022 20.0376 14.0822 21.122 13.2459C22.2066 12.4095 23.0373 11.2895 23.5219 10.0104C24.006 8.73233 24.1253 7.34553 23.8669 6.00392C23.8117 5.70716 23.6946 5.42526 23.5233 5.17636C23.3513 4.92654 23.1286 4.71557 22.8697 4.55714C22.5307 4.34974 22.0934 4.40127 21.8121 4.68173L18.3729 8.11179L18.3619 8.12304C18.2817 8.20603 18.1854 8.27204 18.0792 8.31713C17.9727 8.36223 17.8584 8.38545 17.7428 8.38545C17.6272 8.38545 17.5129 8.36223 17.4064 8.31713C17.3002 8.27204 17.2039 8.20603 17.1237 8.12304C17.109 8.10782 17.0938 8.09316 17.078 8.07908L15.7957 6.93481C15.6482 6.77643 15.566 6.56807 15.566 6.3514C15.566 6.12813 15.6533 5.91372 15.8093 5.75369L19.2451 2.32717C19.493 2.07978 19.5656 1.70688 19.428 1.38495C19.3037 1.09361 19.1168 0.833087 18.8803 0.621811C18.6437 0.410537 18.3636 0.25367 18.0597 0.162315C18.0334 0.154409 18.0066 0.147765 17.9798 0.142406Z" fill="#D4D8E2"/>
</g>
</svg>
