<svg width="16" height="16" viewBox="0 0 16 16" fill="none" xmlns="http://www.w3.org/2000/svg">
<g id="icon 109" clip-path="url(#clip0_1288_6954)">
<path id="Icon" fill-rule="evenodd" clip-rule="evenodd" d="M8.00033 0.666016C3.95024 0.666016 0.666992 3.94926 0.666992 7.99935C0.666992 12.0494 3.95024 15.3327 8.00033 15.3327C12.0504 15.3327 15.3337 12.0494 15.3337 7.99935C15.3337 3.94926 12.0504 0.666016 8.00033 0.666016ZM11.8093 6.46649C12.0673 6.2038 12.0635 5.78171 11.8008 5.52372C11.5381 5.26572 11.116 5.26953 10.858 5.53221L6.75033 9.7146L5.14262 8.07766C4.88463 7.81498 4.46254 7.81118 4.19985 8.06917C3.93717 8.32717 3.93337 8.74926 4.19136 9.01194L5.79906 10.6489C6.32163 11.1809 7.17902 11.1809 7.70159 10.6489L11.8093 6.46649Z" fill="#287EFF"/>
</g>
<defs>
<clipPath id="clip0_1288_6954">
<rect width="16" height="16" fill="white"/>
</clipPath>
</defs>
</svg>
