<svg width="24" height="24" viewBox="0 0 24 24" fill="none" xmlns="http://www.w3.org/2000/svg">
<g id="chat-bubble-square-question--bubble-square-messages-notification-chat-message-question-help">
<path id="Union" fill-rule="evenodd" clip-rule="evenodd" d="M4.28573 0C3.60375 0 2.94969 0.270917 2.46746 0.753154C1.98523 1.23539 1.7143 1.88945 1.7143 2.57143V17.861L0.0440034 22.8718C-0.0549256 23.1686 0.0156961 23.4957 0.228256 23.7252C0.440815 23.9547 0.761548 24.0502 1.06505 23.9745L7.81982 22.2857H21.4286C22.1105 22.2857 22.7647 22.0149 23.2469 21.5326C23.7292 21.0504 24 20.3962 24 19.7143V2.57143C24 1.88943 23.7292 1.23539 23.2469 0.753154C22.7647 0.270917 22.1105 0 21.4286 0H4.28573Z" fill="#D4D8E2"/>
<path id="Union_2" fill-rule="evenodd" clip-rule="evenodd" d="M13.2231 6.12329C12.8883 6.05669 12.5413 6.09087 12.2259 6.2215C11.9105 6.35214 11.641 6.57336 11.4513 6.85721C11.2617 7.14104 11.1604 7.47474 11.1604 7.81611C11.1604 8.40785 10.6807 8.88754 10.089 8.88754C9.49727 8.88754 9.01758 8.40785 9.01758 7.81611C9.01758 7.05092 9.24448 6.30293 9.66959 5.66669C10.0947 5.03046 10.6989 4.53459 11.4059 4.24176C12.1128 3.94894 12.8907 3.87233 13.6412 4.02161C14.3917 4.17089 15.081 4.53936 15.6221 5.08042C16.1632 5.62148 16.5317 6.31085 16.6809 7.06133C16.8302 7.81182 16.7536 8.58972 16.4608 9.29665C16.168 10.0036 15.6721 10.6078 15.0358 11.0329C14.7026 11.2556 14.3388 11.4239 13.9579 11.5336V12.4785C13.9579 13.0702 13.4781 13.5499 12.8864 13.5499C12.2947 13.5499 11.815 13.0702 11.815 12.4785V10.6135C11.815 10.0218 12.2947 9.5421 12.8864 9.5421C13.2278 9.5421 13.5615 9.44088 13.8453 9.25122C14.1292 9.06157 14.3504 8.792 14.481 8.47662C14.6117 8.16123 14.6459 7.81419 14.5793 7.47939C14.5127 7.14457 14.3483 6.83703 14.1069 6.59564C13.8655 6.35427 13.558 6.18989 13.2231 6.12329ZM12.8865 18.2122C12.0389 18.2103 11.3523 17.5227 11.3523 16.6746C11.3523 15.8254 12.0408 15.1369 12.89 15.1369L12.8935 15.137C13.7411 15.1388 14.4276 15.8265 14.4276 16.6746C14.4276 17.5239 13.7392 18.2122 12.89 18.2122H12.8865Z" fill="#7B8297"/>
</g>
</svg>
