<svg width="24" height="24" viewBox="0 0 24 24" fill="none" xmlns="http://www.w3.org/2000/svg">
<g id="ringing-bell-notification--notification-vibrate-ring-sound-alarm-alert-bell-noise">
<path id="Union" fill-rule="evenodd" clip-rule="evenodd" d="M11.9996 2.14258C9.95363 2.14258 7.99146 2.95534 6.54476 4.40204C5.09806 5.84874 4.2853 7.81091 4.2853 9.85686V15.8569C4.2853 16.3115 4.10468 16.7476 3.7832 17.0691C3.4617 17.3905 3.02567 17.5711 2.57101 17.5711C2.09763 17.5711 1.71387 17.955 1.71387 18.4283C1.71387 18.9016 2.09763 19.2854 2.57101 19.2854H21.4282C21.9015 19.2854 22.2853 18.9016 22.2853 18.4283C22.2853 17.955 21.9015 17.5711 21.4282 17.5711C20.9735 17.5711 20.5374 17.3905 20.216 17.0691C19.8946 16.7476 19.7139 16.3115 19.7139 15.8569V9.85686C19.7139 7.81091 18.9011 5.84874 17.4544 4.40204C16.0077 2.95534 14.0455 2.14258 11.9996 2.14258Z" fill="#D4D8E2"/>
<path id="Union_2" fill-rule="evenodd" clip-rule="evenodd" d="M6.45089 0.535811C6.86511 1.11256 6.73334 1.9159 6.1566 2.3301C5.04787 3.12637 4.14451 4.175 3.52113 5.38937C2.89773 6.60373 2.5722 7.94898 2.57143 9.31402C2.57103 10.0241 1.99507 10.5994 1.28499 10.599C0.574907 10.5986 -0.000401661 10.0226 2.10412e-07 9.31256C0.00100443 7.53959 0.423815 5.79231 1.23351 4.21503C2.04319 2.63775 3.21653 1.27574 4.6566 0.241511C5.23334 -0.172701 6.03669 -0.0409392 6.45089 0.535811ZM9 22.7144C9 22.0043 9.57564 21.4287 10.2857 21.4287H13.7143C14.4244 21.4287 15 22.0043 15 22.7144C15 23.4244 14.4244 24.0001 13.7143 24.0001H10.2857C9.57564 24.0001 9 23.4244 9 22.7144ZM19.3435 0.241511C18.7668 -0.172701 17.9633 -0.0409392 17.5491 0.535811C17.135 1.11256 17.2668 1.9159 17.8435 2.3301C18.9521 3.12637 19.8555 4.175 20.479 5.38937C21.1023 6.60373 21.4279 7.94898 21.4286 9.31402C21.4291 10.0241 22.0049 10.5994 22.7151 10.599C23.4252 10.5986 24.0005 10.0226 24 9.31256C23.9991 7.53959 23.5762 5.79231 22.7666 4.21503C21.9569 2.63775 20.7835 1.27574 19.3435 0.241511Z" fill="#7B8297"/>
</g>
</svg>
