<svg width="24" height="24" viewBox="0 0 24 24" fill="none" xmlns="http://www.w3.org/2000/svg">
<g id="user-multiple-circle--close-geometric-human-multiple-person-up-user-circle">
<path id="Union" fill-rule="evenodd" clip-rule="evenodd" d="M12 0C18.6274 0 24 5.37259 24 12C24 18.6274 18.6274 24 12 24C5.37259 24 0 18.6274 0 12C0 5.37259 5.37259 0 12 0Z" fill="#D4D8E2"/>
<path id="Intersect" fill-rule="evenodd" clip-rule="evenodd" d="M15.0014 23.6218C14.0421 23.8689 13.0364 24.0002 12 24.0002C7.69283 24.0002 3.91566 21.731 1.79883 18.3228C3.24241 16.3057 5.25663 14.893 7.83579 14.893C12.2702 14.893 14.6069 18.5474 14.9418 22.5585C14.9705 22.9023 14.9936 23.2641 15.0014 23.6218ZM22.4129 17.9685C21.1241 20.2123 19.1308 21.9999 16.7349 23.0299C16.7849 22.8159 16.8024 22.5921 16.7834 22.3646C16.5993 20.1602 15.8578 17.917 14.4087 16.1799C14.331 16.0867 14.2515 15.9953 14.1701 15.9057C15.0671 15.4518 16.0595 15.2145 17.0673 15.2145C18.1682 15.2145 19.2504 15.4976 20.2103 16.0368C20.6255 16.27 21.0115 16.5477 21.3624 16.8638L22.4129 17.9685ZM11.956 9.40845C11.956 7.28277 10.2328 5.55957 8.10711 5.55957C5.98143 5.55957 4.25823 7.28277 4.25823 9.40845C4.25823 11.5341 5.98143 13.2573 8.10711 13.2573C10.2328 13.2573 11.956 11.5341 11.956 9.40845ZM17.0365 7.33706C18.7977 7.33706 20.2252 8.76468 20.2252 10.5258C20.2252 12.2868 18.7977 13.7144 17.0365 13.7144C15.2755 13.7144 13.8479 12.2868 13.8479 10.5258C13.8479 8.76468 15.2755 7.33706 17.0365 7.33706Z" fill="#7B8297"/>
</g>
</svg>
