<svg width="24" height="24" viewBox="0 0 24 24" fill="none" xmlns="http://www.w3.org/2000/svg">
<g id="star-1--reward-rating-rate-social-star-media-favorite-like-stars">
<path id="Union" fill-rule="evenodd" clip-rule="evenodd" d="M11.8573 0.473633C11.5171 0.473633 11.184 0.570949 10.8974 0.754095C10.6144 0.934901 10.3883 1.1919 10.245 1.49543L7.52348 6.98986C7.51813 7.00066 7.51301 7.01157 7.50812 7.02259C7.5069 7.02532 7.50498 7.0277 7.50257 7.02946C7.50015 7.03123 7.49732 7.03234 7.49434 7.03267C7.4839 7.03382 7.47348 7.03517 7.46309 7.03672L1.47066 7.92448C1.13946 7.95669 0.823616 8.08097 0.559076 8.2836C0.285353 8.49328 0.0782981 8.77781 -0.0370051 9.10276C-0.152308 9.4277 -0.170914 9.77911 -0.0905666 10.1144C-0.0105307 10.4484 0.164273 10.7522 0.412786 10.9892L4.79926 15.2214L4.80925 15.2309C4.81551 15.2368 4.82022 15.2441 4.82293 15.2522C4.82564 15.2604 4.82628 15.2691 4.82477 15.2775L4.82381 15.2831L3.77854 21.4003C3.72111 21.7319 3.75747 22.0744 3.884 22.3861C4.0107 22.6984 4.22252 22.9687 4.49532 23.1666C4.76813 23.3642 5.09096 23.4815 5.4271 23.5048C5.76257 23.5281 6.09785 23.457 6.39493 23.2996L6.39673 23.2986L11.7958 20.4451C11.8152 20.4367 11.8361 20.4323 11.8573 20.4323C11.8785 20.4323 11.8994 20.4367 11.9188 20.4451L17.3178 23.2986C17.615 23.4565 17.9517 23.5283 18.2874 23.5048C18.6236 23.4815 18.9464 23.3642 19.2193 23.1666C19.492 22.9687 19.7039 22.6984 19.8306 22.3861C19.9571 22.0744 19.9936 21.7336 19.9363 21.4022L19.936 21.4003L18.8908 15.2831L18.8898 15.2775C18.8882 15.2691 18.8889 15.2604 18.8917 15.2522C18.8942 15.2441 18.899 15.2368 18.9052 15.2309L18.9153 15.2214L23.3018 10.9891C23.5502 10.7521 23.7251 10.4484 23.8051 10.1144C23.8854 9.77911 23.8669 9.4277 23.7515 9.10276C23.6363 8.77781 23.4292 8.49328 23.1554 8.2836C22.8909 8.08097 22.5751 7.95669 22.2439 7.92448L16.2515 7.03672C16.2411 7.03517 16.2306 7.03382 16.2202 7.03267C16.2172 7.03234 16.2144 7.03123 16.212 7.02946C16.2095 7.0277 16.2076 7.02532 16.2064 7.02259C16.2015 7.01157 16.1964 7.00066 16.1911 6.98986L13.4695 1.4954C13.3262 1.19189 13.1001 0.934896 12.8172 0.754095C12.5305 0.570949 12.1974 0.473633 11.8573 0.473633Z" fill="#D4D8E2"/>
</g>
</svg>
