<svg width="24" height="24" viewBox="0 0 24 24" fill="none" xmlns="http://www.w3.org/2000/svg">
<g id="information-circle--information-frame-info-more-help-point-circle">
<path id="Ellipse 644" d="M12 24C18.6274 24 24 18.6274 24 12C24 5.37258 18.6274 0 12 0C5.37258 0 0 5.37258 0 12C0 18.6274 5.37258 24 12 24Z" fill="#D4D8E2"/>
<path id="Union" fill-rule="evenodd" clip-rule="evenodd" d="M13.7146 6.85686C13.7146 7.80363 12.947 8.57115 12.0003 8.57115C11.0535 8.57115 10.286 7.80363 10.286 6.85686C10.286 5.9101 11.0535 5.14258 12.0003 5.14258C12.947 5.14258 13.7146 5.9101 13.7146 6.85686ZM8.35742 17.1426C8.35742 16.5508 8.83711 16.0711 9.42885 16.0711H10.9289V12.214H10.286C9.69426 12.214 9.21456 11.7343 9.21456 11.1426C9.21456 10.5508 9.69426 10.0711 10.286 10.0711H12.0003C12.592 10.0711 13.0717 10.5508 13.0717 11.1426V16.0711H14.5717C15.1634 16.0711 15.6431 16.5508 15.6431 17.1426C15.6431 17.7343 15.1634 18.214 14.5717 18.214H12.0003H9.42885C8.83711 18.214 8.35742 17.7343 8.35742 17.1426Z" fill="#7B8297"/>
</g>
</svg>
