<svg width="16" height="16" viewBox="0 0 16 16" fill="none" xmlns="http://www.w3.org/2000/svg">
<g id="icon 110" clip-path="url(#clip0_1288_9512)">
<path id="Icon" d="M1.50594 9.5158C1.39281 9.02905 1.33301 8.52183 1.33301 8.00065C1.33301 7.47947 1.39281 6.97226 1.50594 6.4855M6.78755 1.44391C7.18062 1.37171 7.58574 1.33398 7.99967 1.33398C11.6816 1.33398 14.6663 4.31875 14.6663 8.00065C14.6663 11.6826 11.6816 14.6673 7.99967 14.6673C7.58574 14.6673 7.18062 14.6296 6.78755 14.5574M4.66634 2.22587C3.75702 2.75188 2.98348 3.4865 2.41115 4.36429M2.41115 11.637C2.98348 12.5148 3.75702 13.2494 4.66634 13.7754M9.99967 6.66732L7.37689 9.2901C7.35217 9.31483 7.31253 9.31624 7.2861 9.29334L5.99967 8.17878" stroke="#7B8297" stroke-width="1.33333" stroke-linecap="round"/>
</g>
<defs>
<clipPath id="clip0_1288_9512">
<rect width="16" height="16" fill="white"/>
</clipPath>
</defs>
</svg>
